<?xml version="1.0" standalone="no"?><!DOCTYPE svg PUBLIC "-//W3C//DTD SVG 1.1//EN" "http://www.w3.org/Graphics/SVG/1.1/DTD/svg11.dtd"><svg t="1526053348753" class="icon" style="" viewBox="0 0 1024 1024" version="1.1" xmlns="http://www.w3.org/2000/svg" p-id="1889" xmlns:xlink="http://www.w3.org/1999/xlink" width="64" height="64"><defs><style type="text/css"></style></defs><path d="M481.42336 11.58144c-123.72992 6.35904-242.51392 61.27616-331.3664 153.42592-186.18368 193.49504-186.4192 498.70848-0.70656 693.38112 65.28 68.57728 146.36032 116.19328 236.3904 139.28448 44.544 11.3152 78.24384 15.55456 126.32064 15.55456 83.67104 0 155.07456-16.96768 227.90144-54.21056 174.40768-89.088 281.16992-271.03232 273.38752-465.70496-8.94976-222.01344-161.44384-411.97568-374.96832-466.64704-52.7872-13.43488-98.97984-17.90976-156.95872-15.08352z m70.47168 393.58464c81.07008 46.67392 150.36416 88.14592 154.13248 91.92448 4.7104 5.18144 6.35904 9.43104 6.35904 16.26112 0 16.26112-3.76832 20.50048-32.75776 37.46816-130.0992 76.12416-275.51744 158.84288-281.64096 159.55968-10.1376 1.64864-22.86592-5.41696-27.81184-15.55456-4.00384-7.54688-4.23936-21.20704-4.23936-179.82464 0-188.3136-0.23552-183.59296 13.90592-191.37536 15.80032-8.72448 14.14144-9.43104 172.05248 81.54112z" p-id="1890" fill="#e6e6e6"></path></svg>